<svg
  xmlns="http://www.w3.org/2000/svg"
  width="100"
  height="100"
  viewBox="0 0 100 100"
  fill="#000000"
>
  <path d="M75 5H25C16.163 5 9 12.163 9 21v58c0 8.837 7.163 16 16 16h50c8.837 0 16-7.163 16-16V21c0-8.837-7.163-16-16-16zm-1 6c.553 0 1 .447 1 1v6c0 .553-.447 1-1 1H26c-.553 0-1-.447-1-1v-6c0-.553.447-1 1-1zm2 16c0 .553-.447 1-1 1H24c-.553 0-1-.447-1-1v-6c0-.553.447-1 1-1h51c.553 0 1 .447 1 1v6zm-1 16c.553 0 1 .447 1 1v6c0 .553-.447 1-1 1H26c-.553 0-1-.447-1-1v-6c0-.553.447-1 1-1h50z" />
</svg>
